# AST/ASF file generated using VICON BodyLanguage
# -----------------------------------------------
:version 1.10
:name VICON
:units
  mass 1.0
  length 0.45
  angle deg
:documentation
   .ast/.asf automatically generated from VICON data using
   VICON BodyBuilder and BodyLanguage model FoxedUp or BRILLIANT.MOD
:root
   order TX TY TZ RX RY RZ
   axis XYZ
   position 0 0 0  
   orientation 0 0 0 
:bonedata
  begin
     id 1 
     name lhipjoint
     direction 0.650112 -0.723553 0.232005 
     length 2.45805 
     axis 0 0 0  XYZ
  end
  begin
     id 2 
     name lfemur
     direction 0.34202 -0.939693 0  
     length 7.00073  
     axis 0 0 20  XYZ
    dof rx ry rz
    limits (-160.0 20.0)
           (-70.0 70.0)
           (-60.0 70.0)
  end
  begin
     id 3 
     name ltibia
     direction 0.34202 -0.939693 0   
     length 7.8748   
     axis 0 0 20   XYZ
    dof rx
    limits (-10.0 170.0)
  end
  begin
     id 4 
     name lfoot
     direction 0.0542825 -0.14914 0.987325   
     length 1.75978   
     axis -90 7.62852e-016 20   XYZ
    dof rx rz
    limits (-45.0 90.0)
           (-70.0 20.0)
  end
  begin
     id 5 
     name ltoes
     direction 1.53509e-011 -4.21906e-011 1   
     length 0.893912   
     axis -90 7.62852e-016 20   XYZ
    dof rx
    limits (-90.0 20.0)
  end
  begin
     id 6 
     name rhipjoint
     direction -0.637897 -0.733345 0.235145   
     length 2.42522  
     axis 0 0 0  XYZ 
  end
  begin
     id 7 
     name rfemur
     direction -0.34202 -0.939693 0   
     length 7.02549   
     axis 0 0 -20   XYZ
    dof rx ry rz
    limits (-160.0 20.0)
           (-70.0 70.0)
           (-70.0 60.0)
  end
  begin
     id 8 
     name rtibia
     direction -0.34202 -0.939693 0   
     length 7.71512   
     axis 0 0 -20   XYZ
    dof rx
    limits (-10.0 170.0)
 end
 begin
     id 9 
     name rfoot
     direction -0.0822618 -0.226012 0.970645   
     length 1.90014  
     axis -90 -7.62852e-016 -20   XYZ
    dof rx rz
    limits (-45.0 90.0)
           (-20.0 70.0)
  end
  begin
     id 10 
     name rtoes
     direction -1.53542e-011 -4.21872e-011 1   
     length 0.957341   
     axis -90 -7.62852e-016 -20   XYZ
    dof rx
    limits (-90.0 20.0)
  end
  begin
     id 11 
     name lowerback
     direction -0.0022947 0.999774 -0.0211557   
     length 1.89909   
     axis 0 0 0   XYZ
    dof rx ry rz
    limits (-20.0 45.0)
           (-30.0 30.0)
           (-30.0 30.0)
  end
  begin
     id 12 
     name upperback
     direction 0.0107737 0.998635 0.0511027   
     length 1.8853   
     axis 0 0 0   XYZ
    dof rx ry rz
    limits (-20.0 45.0)
           (-30.0 30.0)
           (-30.0 30.0)
  end
  begin
     id 13 
     name thorax
     direction 0.011824 0.998136 0.0598754   
     length 1.88911   
     axis 0 0 0   XYZ
    dof rx ry rz
    limits (-20.0 45.0)
           (-30.0 30.0)
           (-30.0 30.0)
  end
  begin
     id 14 
     name lowerneck
     direction -0.0685355 0.990319 0.120714   
     length 1.91222   
     axis 0 0 0   XYZ
    dof rx ry rz
    limits (-20.0 45.0)
           (-30.0 30.0)
           (-30.0 30.0)
  end
  begin
     id 15 
     name upperneck
     direction 0.0886204 0.955665 -0.280805   
     length 1.92526   
     axis 0 0 0   XYZ
    dof rx ry rz
    limits (-20.0 45.0)
           (-30.0 30.0)
           (-30.0 30.0)
  end
  begin
     id 16
     name head
     direction 0.0233423 0.993502 -0.111393  
     length 1.96056  
     axis 0 0 0   XYZ
    dof rx ry rz
    limits (-20.0 45.0)
           (-30.0 30.0)
           (-30.0 30.0)
  end
  begin
     id 17 
     name lclavicle
     direction 0.941873 0.32922 0.0670041  
     length 3.31705  
     axis 0 0 0   XYZ
    dof ry rz
    limits (-20.0 10.0)
           (0.0 20.0)
  end
  begin
     id 18 
     name lhumerus
     direction 1 -4.4898e-011 3.38707e-028   
     length 5.29277   
     axis 180 -30 -90   XYZ
    dof rx ry rz
    limits (-60.0 90.0)
           (-90.0 90.0)
           (-90.0 90.0)
  end
  begin
     id 19
     name lradius
     direction 1 -4.48952e-011 1.63213e-028   
     length 2.85226   
     axis 180 -30 -90   XYZ
    dof rx
    limits (-10.0 170.0)
  end
  begin
     id 20
     name lwrist
     direction 1 -4.49001e-011 1.27856e-027   
     length 1.42613   
     axis -1.61767e-015 90 90   XYZ
    dof ry
    limits (-180.0 0.0)
 end
  begin
     id 21 
     name lhand
     direction 1 -4.48976e-011 2.55931e-027   
     length 0.602097   
     axis -1.63363e-015 90 90   XYZ
    dof rx rz
    limits (-90.0 90.0)
           (-45.0 45.0)
  end
  begin
     id 22 
     name lfingers
     direction 1 -4.48986e-011 5.11684e-027   
     length 0.485426   
     axis -3.26723e-015 90 90   XYZ
    dof rx
    limits (0.0 90.0)
  end
  begin
     id 23
     name lthumb
     direction 0.707107 -6.34915e-011 0.707107   
     length 0.696978   
     axis -90 45 -2.25915e-014   XYZ
    dof rx rz
    limits (-45.0 45.0)
           (-45.0 45.0)
  end
  begin
     id 24 
     name rclavicle
     direction -0.939974 0.327078 0.0973096   
     length 3.10337  
     axis 0 0 0   XYZ 
    dof ry rz
    limits (-10.0 20.0)
           (-20.0 0.0)
  end
  begin
     id 25 
     name rhumerus
     direction -1 -4.48975e-011 1.83745e-027  
     length 5.13304   
     axis 180 30 90   XYZ
    dof rx ry rz
    limits (-90.0 60.0)
           (-90.0 90.0)
           (-90.0 90.0)
  end
  begin
     id 26 
     name rradius
     direction -1 -4.48977e-011 7.1775e-029   
     length 2.74305   
     axis 180 30 90   XYZ
    dof rx
    limits (-10.0 170.0)
  end
  begin
     id 27 
     name rwrist
     direction -1 -4.48977e-011 1.27963e-027   
     length 1.37152   
     axis -1.61767e-015 -90 -90   XYZ
    dof ry
    limits (-180.0 0.0)
  end
  begin
     id 28
     name rhand
     direction -1 -4.4888e-011 2.56782e-027   
     length 0.767976   
     axis -1.63363e-015 -90 -90   XYZ
    dof rx rz
    limits (-90.0 90.0)
           (-45.0 45.0)
  end
  begin
     id 29
     name rfingers
     direction -1 -4.48947e-011 5.12384e-027   
     length 0.619162   
     axis -3.26723e-015 -90 -90   XYZ
    dof rx
    limits (0.0 90.0)
  end
  begin
     id 30
     name rthumb
     direction -0.707107 -6.34857e-011 0.707107   
     length 0.888997   
     axis -90 -45 2.25915e-014   XYZ
    dof rx rz
    limits (-45.0 45.0)
           (-45.0 45.0)
  end
:hierarchy
  begin
    root lhipjoint rhipjoint lowerback
    lhipjoint lfemur
    lfemur ltibia
    ltibia lfoot
    lfoot ltoes
    rhipjoint rfemur
    rfemur rtibia
    rtibia rfoot
    rfoot rtoes
    lowerback upperback
    upperback thorax
    thorax lowerneck lclavicle rclavicle
    lowerneck upperneck
    upperneck head
    lclavicle lhumerus
    lhumerus lradius
    lradius lwrist
    lwrist lhand lthumb
    lhand lfingers
    rclavicle rhumerus
    rhumerus rradius
    rradius rwrist
    rwrist rhand rthumb
    rhand rfingers
  end

#!OML:ASF F:\VICON\USERDATA\INSTALL\rory3\rory3.ASF
:FULLY-SPECIFIED
:DEGREES
298
root 0.089987 16.1753 0.2619 7.20094 -1.44397 -2.59542
lowerback -0.177693 0.331036 0.283925
upperback -2.78896 0.479767 1.45771
thorax -2.77182 0.252102 1.32676
lowerneck -19.1184 -9.88548 -13.7157
upperneck 32.9799 -14.0155 10.6918
head 17.0959 -6.16471 4.10392
rclavicle -1.4474e-015 -7.95139e-016
rhumerus -32.6202 3.8862 -83.294
rradius 21.3722
rwrist 31.4085
rhand -10.4341 14.1248
rfingers 7.12502
rthumb 15.5656 -15.2688
lclavicle -1.4474e-015 -7.95139e-016
lhumerus -24.9344 16.9991 83.0368
lradius 11.772
lwrist -35.1962
lhand -12.3465 20.2959
lfingers 7.12502
lthumb 13.7231 49.8234
rfemur -23.806 3.84839 21.0298
rtibia 49.0912
rfoot -29.44 -6.29278
rtoes -11.1873
lfemur -26.4662 -0.743151 -15.1771
ltibia 52.5634
lfoot -29.5008 -2.42639
ltoes -15.0211
299
root 0.0911143 16.1681 0.26222 7.11523 -1.49791 -2.54799
lowerback -0.106325 0.32945 0.254771
upperback -2.77791 0.477173 1.42737
thorax -2.80051 0.251112 1.31161
lowerneck -19.1229 -9.89513 -13.7249
upperneck 33.0502 -14.0625 10.751
head 17.1508 -6.17741 4.12428
rclavicle 1.03756e-014 -2.5842e-015
rhumerus -32.5368 3.68993 -83.1799
rradius 21.2709
rwrist 31.84
rhand -10.4267 14.0717
rfingers 7.12502
rthumb 15.5727 -15.3214
lclavicle 1.03756e-014 -2.5842e-015
lhumerus -24.8354 17.2662 82.9415
lradius 11.3756
lwrist -35.5245
lhand -12.9984 20.365
lfingers 7.12502
lthumb 13.0947 49.9339
rfemur -23.7989 3.8476 20.9741
rtibia 49.262
rfoot -29.5108 -6.28633
rtoes -11.356
lfemur -26.4345 -0.751826 -15.2423
ltibia 52.7039
lfoot -29.5521 -2.4837
ltoes -14.6529
300
root 0.0915909 16.1601 0.263878 7.05849 -1.52115 -2.48398
lowerback -0.134229 0.305143 0.175454
upperback -2.7437 0.442593 1.42008
thorax -2.74932 0.23543 1.34956
lowerneck -19.1996 -9.87371 -13.7103
upperneck 33.1571 -14.0447 10.7608
head 17.2223 -6.16387 4.13288
rclavicle -3.63093e-015 8.54774e-015
rhumerus -32.4431 3.76508 -83.1594
rradius 21.2638
rwrist 31.9641
rhand -10.3726 13.9907
rfingers 7.12502
rthumb 15.6249 -15.3983
lclavicle -3.63093e-015 8.54774e-015
lhumerus -24.8073 17.5537 82.8002
lradius 11.1635
lwrist -35.8352
lhand -13.1518 20.8532
lfingers 7.12502
lthumb 12.9469 50.4315
rfemur -23.8128 3.82507 20.9019
rtibia 49.4299
rfoot -29.5959 -6.27124
rtoes -11.3873
lfemur -26.4202 -0.742566 -15.326
ltibia 52.8291
lfoot -29.6131 -2.41967
ltoes -14.9451
301
root 0.0932428 16.153 0.266448 7.02497 -1.54189 -2.42984
lowerback -0.244918 0.285254 0.128362
upperback -2.68796 0.413302 1.41059
thorax -2.6291 0.221319 1.36738
lowerneck -19.2265 -9.85201 -13.7109
upperneck 33.1682 -14.0369 10.8286
head 17.2418 -6.15118 4.16596
rclavicle 9.44382e-015 -5.06901e-015
rhumerus -32.3595 3.87406 -83.1373
rradius 21.3202
rwrist 32.0753
rhand -10.2921 13.9981
rfingers 7.12502
rthumb 15.7023 -15.3848
lclavicle 9.44382e-015 -5.06901e-015
lhumerus -24.6833 17.8436 82.7159
lradius 10.8409
lwrist -36.1346
lhand -13.2264 21.3441
lfingers 7.12502
lthumb 12.8749 50.927
rfemur -23.8345 3.80545 20.8357
rtibia 49.5634
rfoot -29.7007 -6.23333
rtoes -11.2388
lfemur -26.4299 -0.728138 -15.4058
ltibia 52.9535
lfoot -29.7531 -2.2577
ltoes -15.7231
302
root 0.0946868 16.1459 0.268979 6.9828 -1.56041 -2.46682
lowerback -0.35856 0.29468 0.213346
upperback -2.62888 0.424412 1.38655
thorax -2.50362 0.224212 1.29536
lowerneck -19.1765 -9.85149 -13.6981
upperneck 33.1283 -14.0882 10.9401
head 17.2304 -6.15849 4.20307
rclavicle 6.99318e-015 6.95746e-016
rhumerus -32.3156 3.80991 -83.088
rradius 21.3958
rwrist 32.2583
rhand -10.2618 14.1175
rfingers 7.12502
rthumb 15.7315 -15.2631
lclavicle 6.99318e-015 6.95746e-016
lhumerus -24.5227 18.0469 82.6319
lradius 10.4863
lwrist -36.3911
lhand -13.5476 21.6946
lfingers 7.12502
lthumb 12.5653 51.2968
rfemur -23.8307 3.76392 20.8791
rtibia 49.6633
rfoot -29.7403 -6.31908
rtoes -11.4384
lfemur -26.4296 -0.715837 -15.375
ltibia 53.0936
lfoot -29.8838 -2.21706
ltoes -15.9337
303
root 0.0934437 16.1393 0.270452 6.92527 -1.56032 -2.62226
lowerback -0.381132 0.306695 0.376427
upperback -2.60501 0.441885 1.40057
thorax -2.46558 0.229416 1.21813
lowerneck -19.1304 -9.85385 -13.6458
upperneck 33.1757 -14.1384 10.9703
head 17.2517 -6.17037 4.19996
rclavicle -1.10217e-014 1.59028e-015
rhumerus -32.2987 3.97816 -83.145
rradius 21.4642
rwrist 32.1769
rhand -10.0934 14.2271
rfingers 7.12502
rthumb 15.8937 -15.1406
lclavicle -1.10217e-014 1.59028e-015
lhumerus -24.468 18.2252 82.5245
lradius 10.2213
lwrist -36.5919
lhand -13.238 22.0004
lfingers 7.12502
lthumb 12.8637 51.584
rfemur -23.7907 3.76963 21.0686
rtibia 49.7281
rfoot -29.7588 -6.43057
rtoes -11.5754
lfemur -26.4247 -0.678368 -15.1904
ltibia 53.233
lfoot -29.9281 -2.37978
ltoes -15.2868
304
root 0.0918756 16.1343 0.272612 6.88663 -1.56501 -2.81735
lowerback -0.403157 0.300651 0.528629
upperback -2.60268 0.436531 1.47382
thorax -2.45022 0.224286 1.20824
lowerneck -19.1268 -9.86866 -13.6181
upperneck 33.321 -14.1607 10.8851
head 17.3185 -6.18664 4.15694
rclavicle 6.88603e-015 -1.37161e-014
rhumerus -32.299 4.56502 -83.3114
rradius 21.5604
rwrist 31.7829
rhand -10.0212 14.2356
rfingers 7.12502
rthumb 15.9633 -15.1266
lclavicle 6.88603e-015 -1.37161e-014
lhumerus -24.5731 18.4716 82.3909
lradius 10.175
lwrist -36.8115
lhand -13.2534 22.1466
lfingers 7.12502
lthumb 12.8489 51.7311
rfemur -23.7611 3.79567 21.2962
rtibia 49.7719
rfoot -29.7537 -6.44685
rtoes -11.2595
lfemur -26.4291 -0.627899 -14.9663
ltibia 53.3516
lfoot -29.9656 -2.21966
ltoes -15.8451
305
root 0.0913166 16.1316 0.274659 6.81524 -1.5982 -2.84741
lowerback -0.371443 0.293973 0.536037
upperback -2.60937 0.428532 1.48743
thorax -2.47489 0.22031 1.21805
lowerneck -19.1312 -9.88133 -13.6033
upperneck 33.4702 -14.1942 10.8467
head 17.399 -6.2029 4.13498
rclavicle -1.16258e-014 7.7526e-015
rhumerus -32.4043 5.27999 -83.5476
rradius 21.8041
rwrist 31.3908
rhand -10.1811 14.1883
rfingers 7.12502
rthumb 15.8093 -15.1862
lclavicle -1.16258e-014 7.7526e-015
lhumerus -24.7131 18.6992 82.1977
lradius 10.2602
lwrist -37.0558
lhand -13.8072 21.9854
lfingers 7.12502
lthumb 12.315 51.6028
rfemur -23.7004 3.81607 21.3323
rtibia 49.8087
rfoot -29.7719 -6.40171
rtoes -10.7493
lfemur -26.3643 -0.606985 -14.9352
ltibia 53.414
lfoot -29.9831 -2.30178
ltoes -15.5668
306
root 0.0912251 16.1299 0.27811 6.7776 -1.63571 -2.80893
lowerback -0.389541 0.283021 0.469527
upperback -2.63689 0.413335 1.48621
thorax -2.49325 0.214219 1.25443
lowerneck -19.048 -9.88334 -13.6225
upperneck 33.5452 -14.2202 10.8596
head 17.4272 -6.21807 4.14396
rclavicle 6.1002e-015 9.93923e-017
rhumerus -32.5752 5.91281 -83.7442
rradius 22.0924
rwrist 31.259
rhand -10.3251 14.2221
rfingers 7.12502
rthumb 15.6706 -15.1633
lclavicle 6.1002e-015 9.93923e-017
lhumerus -24.8955 18.9233 81.9748
lradius 10.4182
lwrist -37.3149
lhand -13.4578 21.9663
lfingers 7.12502
lthumb 12.6519 51.5631
rfemur -23.6698 3.81137 21.2873
rtibia 49.8411
rfoot -29.7619 -6.39515
rtoes -11.5373
lfemur -26.3168 -0.581304 -14.9826
ltibia 53.4343
lfoot -30.0048 -2.42355
ltoes -15.1424
307
root 0.0916697 16.1294 0.284089 6.73076 -1.64203 -2.74343
lowerback -0.459811 0.266829 0.413479
upperback -2.6561 0.389728 1.45104
thorax -2.47313 0.203237 1.25043
lowerneck -18.8979 -9.86867 -13.639
upperneck 33.6076 -14.2515 10.9278
head 17.4399 -6.23103 4.17884
rclavicle 1.28216e-014 -4.07509e-015
rhumerus -32.7217 6.50145 -83.9491
rradius 22.3733
rwrist 31.0974
rhand -10.1888 14.3
rfingers 7.12502
rthumb 15.8019 -15.075
lclavicle 1.28216e-014 -4.07509e-015
lhumerus -25.1415 19.0747 81.6509
lradius 10.5806
lwrist -37.4642
lhand -13.0965 21.7298
lfingers 7.12502
lthumb 13.0001 51.3047
rfemur -23.5991 3.77463 21.2192
rtibia 49.8587
rfoot -29.7414 -6.46549
rtoes -12.5172
lfemur -26.2296 -0.608486 -15.0609
ltibia 53.4015
lfoot -29.9838 -2.53609
ltoes -14.456
308
root 0.0914099 16.13 0.289262 6.68297 -1.65469 -2.74415
lowerback -0.546545 0.251534 0.410848
upperback -2.64544 0.367627 1.43504
thorax -2.41281 0.191955 1.2362
lowerneck -18.826 -9.85432 -13.6063
upperneck 33.7154 -14.2843 10.9632
head 17.4873 -6.23893 4.18938
rclavicle -2.67272e-015 -1.68967e-014
rhumerus -32.8608 7.32719 -84.2608
rradius 22.7433
rwrist 30.6142
rhand -10.0029 14.2449
rfingers 7.12502
rthumb 15.9808 -15.1159
lclavicle -2.67272e-015 -1.68967e-014
lhumerus -25.3502 19.2693 81.3955
lradius 10.7699
lwrist -37.5782
lhand -13.2729 21.4289
lfingers 7.12502
lthumb 12.8301 51.0146
rfemur -23.5206 3.74955 21.2273
rtibia 49.8578
rfoot -29.7694 -6.46867
rtoes -12.3622
lfemur -26.1443 -0.612955 -15.0614
ltibia 53.3589
lfoot -29.9465 -2.54717
ltoes -14.239
309
root 0.0906816 16.1304 0.293798 6.61852 -1.7333 -2.77065
lowerback -0.587876 0.25949 0.422182
upperback -2.62335 0.377387 1.43227
thorax -2.3669 0.196451 1.22702
lowerneck -18.9018 -9.85211 -13.5129
upperneck 33.9336 -14.2913 10.8444
head 17.6 -6.24115 4.12392
rclavicle 4.55807e-015 -1.50082e-014
rhumerus -33.0474 8.46445 -84.6643
rradius 23.2053
rwrist 29.7997
rhand -9.81703 14.1707
rfingers 7.12502
rthumb 16.1598 -15.1757
lclavicle 4.55807e-015 -1.50082e-014
lhumerus -25.6563 19.4679 81.1391
lradius 11.1994
lwrist -37.7932
lhand -13.3225 21.2639
lfingers 7.12502
lthumb 12.7823 50.8526
rfemur -23.4252 3.79389 21.2602
rtibia 49.8258
rfoot -29.7748 -6.41543
rtoes -12.0129
lfemur -26.0179 -0.535749 -15.0414
ltibia 53.3098
lfoot -29.9579 -2.35117
ltoes -14.9345
310
root 0.0906106 16.1306 0.297951 6.55522 -1.7948 -2.76482
lowerback -0.53706 0.283051 0.461887
upperback -2.66273 0.409347 1.37705
thorax -2.43588 0.21103 1.14732
lowerneck -18.942 -9.86305 -13.3809
upperneck 34.1733 -14.3377 10.7144
head 17.7181 -6.25712 4.03891
rclavicle -9.20466e-015 2.48481e-015
rhumerus -33.2896 9.21013 -84.9632
rradius 23.6262
rwrist 29.3688
rhand -9.58742 14.2567
rfingers 7.12502
rthumb 16.3809 -15.0716
lclavicle -9.20466e-015 2.48481e-015
lhumerus -26.0931 19.4997 80.7137
lradius 11.7395
lwrist -38.1962
lhand -12.6981 21.2124
lfingers 7.12502
lthumb 13.3842 50.7625
rfemur -23.3137 3.8358 21.254
rtibia 49.7592
rfoot -29.7475 -6.44545
rtoes -12.4613
lfemur -25.8909 -0.507631 -15.0508
ltibia 53.2615
lfoot -29.9881 -2.31307
ltoes -15.2369
311
root 0.0896178 16.1335 0.303666 6.52154 -1.82794 -2.83824
lowerback -0.462585 0.280218 0.54323
upperback -2.7662 0.408768 1.37018
thorax -2.58377 0.209053 1.09428
lowerneck -18.8688 -9.8311 -13.3167
upperneck 34.3914 -14.3334 10.6551
head 17.8039 -6.25778 4.01372
rclavicle 1.14938e-014 -1.635e-014
rhumerus -33.6451 10.1632 -85.2952
rradius 24.0706
rwrist 28.9224
rhand -9.46006 14.3192
rfingers 7.12502
rthumb 16.5035 -14.9989
lclavicle 1.14938e-014 -1.635e-014
lhumerus -26.5907 19.5734 80.2374
lradius 12.2067
lwrist -38.7271
lhand -11.8714 21.2649
lfingers 7.12502
lthumb 14.1809 50.7609
rfemur -23.1952 3.89341 21.3388
rtibia 49.6503
rfoot -29.7164 -6.38983
rtoes -12.6811
lfemur -25.793 -0.453685 -14.9709
ltibia 53.2033
lfoot -30.0074 -2.24558
ltoes -15.5584
312
root 0.0887098 16.1386 0.311825 6.47882 -1.87985 -2.94804
lowerback -0.510826 0.269068 0.637885
upperback -2.81362 0.395192 1.38747
thorax -2.60481 0.200343 1.05943
lowerneck -18.8053 -9.7845 -13.271
upperneck 34.5736 -14.3088 10.6361
head 17.8764 -6.24734 4.01368
rclavicle 9.23223e-015 5.73991e-015
rhumerus -33.9861 11.324 -85.6842
rradius 24.5597
rwrist 28.4125
rhand -9.40594 14.3907
rfingers 7.12502
rthumb 16.5556 -14.923
lclavicle 9.23223e-015 5.73991e-015
lhumerus -27.1002 19.6384 79.6419
lradius 12.7225
lwrist -39.2068
lhand -11.5205 20.5982
lfingers 7.12502
lthumb 14.5191 50.0702
rfemur -23.0422 3.96869 21.466
rtibia 49.5066
rfoot -29.6786 -6.39938
rtoes -12.3143
lfemur -25.6546 -0.376633 -14.8499
ltibia 53.1246
lfoot -30.0341 -2.15118
ltoes -16.0231
